<svg width="24" height="24" viewBox="0 0 24 24" fill="none" xmlns="http://www.w3.org/2000/svg">
    <path d="M3 1.44C3 0.644623 3.64462 0 4.44 0H15L21 5.03999V22.56C21 23.3554 20.3554 24 19.56 24H4.44C3.64462 24 3 23.3554 3 22.56V1.44Z" fill="#EF5350"/>
    <path d="M15 0V3.59998C15 4.39537 15.6446 5.03999 16.44 5.03999H21" fill="#D32F2F"/>
    <path d="M7.04318 16.9423H5.63281V11.7437H6.95319C8.28855 11.7437 9.56355 12.1712 9.56355 14.3173C9.5636 16.4315 8.3407 16.9423 7.04318 16.9423ZM7.13283 12.6436H6.87783V16.0423H7.13283C7.81536 16.0423 8.27281 15.6748 8.27281 14.3165C8.27321 12.9294 7.78572 12.6436 7.13283 12.6436Z" fill="white"/>
    <path d="M10.9053 12.914C10.9503 13.454 10.9953 13.9123 10.9803 14.7519L10.9428 16.9423H9.87744L10.1699 11.7437H11.4453L11.9928 15.0073H12.0228L12.5549 11.7437H13.8303L14.1228 16.9423H13.0353L12.9753 14.7298C12.9524 13.9047 12.9899 13.5065 13.0428 12.914H13.0128L12.4653 16.0577H11.5278L10.9349 12.914H10.9053Z" fill="white"/>
    <path d="M14.4146 14.3322C14.4146 12.5618 15.4949 11.6089 16.8299 11.6089C17.5878 11.6089 18.0832 11.8714 18.4953 12.2543L17.8428 12.9296C17.5278 12.6521 17.2649 12.5164 16.8974 12.5164C16.2003 12.5164 15.6978 13.0414 15.6978 14.3396C15.6978 15.6971 16.0199 16.1621 16.7028 16.1621C16.9357 16.1621 17.1606 16.1021 17.3407 16.0046V14.8264H16.6953L16.5753 13.956H18.5182V16.5442C17.9936 16.8664 17.3854 17.0692 16.6878 17.0692C15.2103 17.07 14.4146 16.1172 14.4146 14.3322Z" fill="white"/>
</svg>
