<svg width="24" height="24" viewBox="0 0 24 24" fill="none" xmlns="http://www.w3.org/2000/svg">
    <g clip-path="url(#clip0_1_1471)">
    <path d="M20.6625 6.57187V22.4531C20.6625 23.3062 19.9688 24 19.1157 24H4.82349C3.97036 24 3.27661 23.3062 3.27661 22.4531V1.54688C3.27661 0.69375 3.97036 0 4.82349 0H14.086L20.6625 6.57187Z" fill="#F5B912"/>
    <path d="M15.1688 10.9453H8.86406C8.27813 10.9453 7.80469 11.4188 7.80469 12.0047V18.3094C7.80469 18.8953 8.27813 19.3688 8.86406 19.3688H15.1688C15.7547 19.3688 16.2281 18.8953 16.2281 18.3094V12C16.2281 11.4188 15.7547 10.9453 15.1688 10.9453ZM15.1359 17.4844H8.90156V13.2422H15.1359V17.4844Z" fill="white"/>
    <path opacity="0.19" d="M14.9812 6.3L20.6578 10.8984V6.57656L17.4375 4.71094L14.9812 6.3Z" fill="black"/>
    <path d="M20.6905 6.57187H15.6655C14.8124 6.57187 14.1187 5.87812 14.1187 5.025V0L20.6905 6.57187Z" fill="#FADC87"/>
    </g>
    <defs>
    <clipPath id="clip0_1_1471">
    <rect width="24" height="24" fill="white"/>
    </clipPath>
    </defs>
</svg>