<svg width="24" height="24" viewBox="0 0 24 24" fill="none" xmlns="http://www.w3.org/2000/svg">
    <g clip-path="url(#clip0_1_1450)">
    <path d="M3 1.44C3 0.644623 3.64462 0 4.44 0H15L21 5.03999V22.56C21 23.3554 20.3554 24 19.56 24H4.44C3.64462 24 3 23.3554 3 22.56V1.44Z" fill="#EF5350"/>
    <path d="M15 0V3.59998C15 4.39537 15.6446 5.03999 16.44 5.03999H21" fill="#D32F2F"/>
    <path d="M7.04318 16.9423H5.63281V11.7437H6.95319C8.28855 11.7437 9.56355 12.1712 9.56355 14.3173C9.5636 16.4315 8.3407 16.9423 7.04318 16.9423ZM7.13283 12.6436H6.87783V16.0423H7.13283C7.81536 16.0423 8.27281 15.6748 8.27281 14.3165C8.27321 12.9294 7.78572 12.6436 7.13283 12.6436Z" fill="white"/>
    <path d="M10.9053 12.914C10.9503 13.454 10.9953 13.9123 10.9803 14.7519L10.9428 16.9423H9.87744L10.1699 11.7437H11.4453L11.9928 15.0073H12.0228L12.5549 11.7437H13.8303L14.1228 16.9423H13.0353L12.9753 14.7298C12.9524 13.9047 12.9899 13.5065 13.0428 12.914H13.0128L12.4653 16.0577H11.5278L10.9349 12.914H10.9053Z" fill="white"/>
    <path d="M14.4146 14.3322C14.4146 12.5618 15.4949 11.6089 16.8299 11.6089C17.5878 11.6089 18.0832 11.8714 18.4953 12.2543L17.8428 12.9296C17.5278 12.6521 17.2649 12.5164 16.8974 12.5164C16.2003 12.5164 15.6978 13.0414 15.6978 14.3396C15.6978 15.6971 16.0199 16.1621 16.7028 16.1621C16.9357 16.1621 17.1606 16.1021 17.3407 16.0046V14.8264H16.6953L16.5753 13.956H18.5182V16.5442C17.9936 16.8664 17.3854 17.0692 16.6878 17.0692C15.2103 17.07 14.4146 16.1172 14.4146 14.3322Z" fill="white"/>
    <g clip-path="url(#clip1_1_1450)">
    <path d="M3 1.44C3 0.644623 3.64462 0 4.44 0H15L21 5.03999V22.56C21 23.3554 20.3554 24 19.56 24H4.44C3.64462 24 3 23.3554 3 22.56V1.44Z" fill="#42A5F5"/>
    <path d="M15 0V3.59998C15 4.39537 15.6446 5.03999 16.44 5.03999H21" fill="#1E88E5"/>
    <path d="M7.02825 15.9529H9.44363L9.31613 16.9429H5.55786V16.0129L7.98076 12.705H5.7904V11.7446H9.39865V12.6822L7.02825 15.9529Z" fill="white"/>
    <path d="M10.3052 11.7441H13.6959V12.6513H12.6234V16.0274H13.6959V16.9424H10.3052V16.0274H11.3781V12.6513H10.3052V11.7441Z" fill="white"/>
    <path d="M16.5156 15.2174H15.9531V16.9427H14.7078V11.7441H16.3506C17.7685 11.7441 18.5785 12.2992 18.5785 13.4395C18.5781 14.6627 17.7457 15.2174 16.5156 15.2174ZM16.366 12.6291H15.9531V14.317H16.4106C16.9731 14.317 17.2956 14.0466 17.2956 13.4391C17.2957 12.892 16.9881 12.6291 16.366 12.6291Z" fill="white"/>
    <path d="M3 1.44C3 0.644623 3.64462 0 4.44 0H15L21 5.03999V22.56C21 23.3554 20.3554 24 19.56 24H4.44C3.64462 24 3 23.3554 3 22.56V1.44Z" fill="#26A69A"/>
    <path d="M15 0V3.59998C15 4.39537 15.6446 5.03999 16.44 5.03999H21" fill="#00897B"/>
    <path d="M8.11615 12.6965V16.9427H6.87078V12.6965H5.41504V11.7437H9.63117L9.50327 12.6965H8.11615Z" fill="white"/>
    <path d="M9.87013 11.7441H11.228L11.9705 13.3649H12.0005L12.7883 11.7441H14.1087L12.7126 14.1303L14.2358 16.9428H12.8779L11.9854 15.0149H11.9555L11.0851 16.9428H9.75757L11.228 14.1824L9.87013 11.7441Z" fill="white"/>
    <path d="M17.116 12.6965V16.9427H15.8709V12.6965H14.4148V11.7437H18.6313L18.5031 12.6965H17.116Z" fill="white"/>
    </g>
    </g>
    <defs>
    <clipPath id="clip0_1_1450">
    <rect width="24" height="24" fill="white"/>
    </clipPath>
    <clipPath id="clip1_1_1450">
    <rect width="24" height="24" fill="white"/>
    </clipPath>
    </defs>
</svg>
