<svg width="24" height="24" viewBox="0 0 24 24" fill="none" xmlns="http://www.w3.org/2000/svg">
    <path d="M3 1.44C3 0.644623 3.64462 0 4.44 0H15L21 5.03999V22.56C21 23.3554 20.3554 24 19.56 24H4.44C3.64462 24 3 23.3554 3 22.56V1.44Z" fill="#42A5F5"/>
    <path d="M15 0V3.59998C15 4.39537 15.6446 5.03999 16.44 5.03999H21" fill="#1E88E5"/>
    <path d="M7.02825 15.9529H9.44363L9.31613 16.9429H5.55786V16.0129L7.98076 12.705H5.7904V11.7446H9.39865V12.6822L7.02825 15.9529Z" fill="white"/>
    <path d="M10.3052 11.7441H13.6959V12.6513H12.6234V16.0274H13.6959V16.9424H10.3052V16.0274H11.3781V12.6513H10.3052V11.7441Z" fill="white"/>
    <path d="M16.5156 15.2174H15.9531V16.9427H14.7078V11.7441H16.3506C17.7685 11.7441 18.5785 12.2992 18.5785 13.4395C18.5781 14.6627 17.7457 15.2174 16.5156 15.2174ZM16.366 12.6291H15.9531V14.317H16.4106C16.9731 14.317 17.2956 14.0466 17.2956 13.4391C17.2957 12.892 16.9881 12.6291 16.366 12.6291Z" fill="white"/>
</svg>